# xmcd
# 
# Track frame offsets:
#     150
#     15750
#     28015
#     44345
#     56080
#     69112
#     83420
#     95657
#     111042
#     126770
#     138970
#     151977
#     167622
#     174282
#     187462
#     199167
# 
# Disc length: 2869
# 
# Revision: 2
# Processed by: cddbd v1.5.2PL0 Copyright (c) Steve Scherf et al.
# Submitted via: BonkEnc v1.0.6
# 
DISCID=c90b3310
DTITLE=Various Artist - Die schönsten Melodien aus Wien
DYEAR=0
DGENRE=
TTITLE0=Erich Kunz and Orchester der Wr. Volksoper - Im Prater blüh´n wieder die Bäume
TTITLE1=Guntram Spiegel-Fauk and Fritz Silberbauer - Hinter Grinzing am Berg liegt der Himmel
TTITLE2=Paul Hörbiger and Orchester Johannes Fehring - Wiener Fiakerlied
TTITLE3=Wiener Donauschrammeln - Wien bleibt Wien
TTITLE4=Erich Kunz and Orchester der Wr. Volksoper - Mei Muatterl war a Weanerin
TTITLE5=Adi Strassler - Der klane Bua mit seiner Geig´n
TTITLE6=Die Lichtenthaler Schrammeln - Schrammel-Tanz
TTITLE7=Franz Wächter - I bin a Weaner Kind
TTITLE8=Ch. Unzeitig and Guntram Spiegel-Fauk - Beim Burgtor am Michaelerplatz
TTITLE9=Orchester E. Benedini - Grinzinger Marsch
TTITLE10=Eberhard and Franz Wächter - Lannermusik
TTITLE11=Erich Kunz and Orchester der Wr. Volksoper - Drun´t in der Lobau
TTITLE12=Das klassische Wr. Schrammelquartett - Ottakringer Marsch
TTITLE13=Hans Moser and Die fidelen Grinzinger - Mein Herz ist ein Bilderbuch vom alten Wien
TTITLE14=Ingeborg Vesely and Orchester Gert Last - Heut´ kommen d´ Engerln auf Urlaub nach Wien
TTITLE15=Erich Kunz and Orchester der Wr. Volksoper - Wien, du Stadt meiner Träume
EXTD=
EXTT0=
EXTT1=
EXTT2=
EXTT3=
EXTT4=
EXTT5=
EXTT6=
EXTT7=
EXTT8=
EXTT9=
EXTT10=
EXTT11=
EXTT12=
EXTT13=
EXTT14=
EXTT15=
PLAYORDER=
